<svg xmlns="http://www.w3.org/2000/svg" version="1.1" width="64px" height="64px" style="shape-rendering:geometricPrecision; text-rendering:geometricPrecision; image-rendering:optimizeQuality; fill-rule:evenodd; clip-rule:evenodd" xmlns:xlink="http://www.w3.org/1999/xlink">
<g><path fill="#757575" d="M 10.5,5.5 C 13.4802,8.14437 16.4802,10.811 19.5,13.5C 21.4829,12.018 23.3163,10.3513 25,8.5C 25.4994,14.1569 25.6661,19.8236 25.5,25.5C 19.8236,25.6661 14.1569,25.4994 8.5,25C 10.3513,23.3163 12.018,21.4829 13.5,19.5C 11.0164,16.5157 8.34974,13.6824 5.5,11C 7.37342,9.29617 9.04009,7.46283 10.5,5.5 Z"/></g>
<g><path fill="#757575" d="M 51.5,5.5 C 53.6298,7.12706 55.6298,8.96039 57.5,11C 54.6503,13.6824 51.9836,16.5157 49.5,19.5C 50.982,21.4829 52.6487,23.3163 54.5,25C 48.8431,25.4994 43.1764,25.6661 37.5,25.5C 37.3339,19.8236 37.5006,14.1569 38,8.5C 39.6837,10.3513 41.5171,12.018 43.5,13.5C 46.5211,11.1456 49.1877,8.47893 51.5,5.5 Z"/></g>
<g><path fill="#757575" d="M 8.5,38.5 C 13.9753,37.5111 19.642,37.1778 25.5,37.5C 25.6661,43.1764 25.4994,48.8431 25,54.5C 23.3163,52.6487 21.4829,50.982 19.5,49.5C 16.5157,51.9836 13.6824,54.6503 11,57.5C 9.16667,55.6667 7.33333,53.8333 5.5,52C 8.34974,49.3176 11.0164,46.4843 13.5,43.5C 12.1455,41.4788 10.4788,39.8121 8.5,38.5 Z"/></g>
<g><path fill="#757575" d="M 37.5,37.5 C 43.1764,37.3339 48.8431,37.5006 54.5,38C 52.6487,39.6837 50.982,41.5171 49.5,43.5C 51.9836,46.4843 54.6503,49.3176 57.5,52C 55.6667,53.8333 53.8333,55.6667 52,57.5C 49.3176,54.6503 46.4843,51.9836 43.5,49.5C 41.5171,50.982 39.6837,52.6487 38,54.5C 37.5006,48.8431 37.3339,43.1764 37.5,37.5 Z"/></g>
</svg>
