<svg xmlns="http://www.w3.org/2000/svg" version="1.1" width="64px" height="64px" style="shape-rendering:geometricPrecision; text-rendering:geometricPrecision; image-rendering:optimizeQuality; fill-rule:evenodd; clip-rule:evenodd" xmlns:xlink="http://www.w3.org/1999/xlink">
<g><path fill="#757575" d="M 5.5,5.5 C 11.1764,5.33391 16.8431,5.50058 22.5,6C 20.6487,7.68375 18.982,9.51708 17.5,11.5C 19.9836,14.4843 22.6503,17.3176 25.5,20C 23.6667,21.8333 21.8333,23.6667 20,25.5C 17.3176,22.6503 14.4843,19.9836 11.5,17.5C 9.51708,18.982 7.68375,20.6487 6,22.5C 5.50058,16.8431 5.33391,11.1764 5.5,5.5 Z"/></g>
<g><path fill="#757575" d="M 40.5,6.5 C 45.9753,5.51114 51.642,5.1778 57.5,5.5C 57.6661,11.1764 57.4994,16.8431 57,22.5C 55.3163,20.6487 53.4829,18.982 51.5,17.5C 48.5157,19.9836 45.6824,22.6503 43,25.5C 41.1667,23.6667 39.3333,21.8333 37.5,20C 40.3497,17.3176 43.0164,14.4843 45.5,11.5C 44.1455,9.47878 42.4788,7.81212 40.5,6.5 Z"/></g>
<g><path fill="#757575" d="M 19.5,37.5 C 21.6298,39.1271 23.6298,40.9604 25.5,43C 22.6503,45.6824 19.9836,48.5157 17.5,51.5C 18.982,53.4829 20.6487,55.3163 22.5,57C 16.8431,57.4994 11.1764,57.6661 5.5,57.5C 5.33391,51.8236 5.50058,46.1569 6,40.5C 7.68375,42.3513 9.51708,44.018 11.5,45.5C 14.5211,43.1456 17.1877,40.4789 19.5,37.5 Z"/></g>
<g><path fill="#757575" d="M 42.5,37.5 C 45.4802,40.1444 48.4802,42.811 51.5,45.5C 53.4829,44.018 55.3163,42.3513 57,40.5C 57.4994,46.1569 57.6661,51.8236 57.5,57.5C 51.8236,57.6661 46.1569,57.4994 40.5,57C 42.3513,55.3163 44.018,53.4829 45.5,51.5C 43.0164,48.5157 40.3497,45.6824 37.5,43C 39.3734,41.2962 41.0401,39.4628 42.5,37.5 Z"/></g>
</svg>
